<?xml version="1.0" encoding="utf-8"?><svg xmlns="http://www.w3.org/2000/svg" xmlns:xlink="http://www.w3.org/1999/xlink"><symbol viewBox="0 0 17 6" id="arrow" xmlns="http://www.w3.org/2000/svg">
    <path d="M1.43628 2.47901C1.17214 2.47901 0.958018 2.69314 0.958018 2.95728C0.958018 3.22141 1.17214 3.43554 1.43628 3.43554L1.43628 2.47901ZM16.7406 2.95728L11.958 0.196035V5.71852L16.7406 2.95728ZM1.43628 3.43554L12.4363 3.43554V2.47901L1.43628 2.47901L1.43628 3.43554Z"/>
</symbol><symbol viewBox="0 0 5 12" id="chevron" xmlns="http://www.w3.org/2000/svg">
    <path d="M5 5.99997C5 6.13947 4.95927 6.27911 4.87792 6.38561L2.79459 9.11288L0.711272 11.8401C0.548461 12.0533 0.284816 12.0533 0.122109 11.8401C-0.0405988 11.627 -0.040703 11.2819 0.122109 11.0689L3.99417 5.99998L0.122108 0.931072C-0.0407034 0.717937 -0.0407034 0.3728 0.122108 0.159801C0.28492 -0.0531998 0.548564 -0.0533362 0.711272 0.1598L4.87792 5.61434C4.95927 5.72084 5 5.86047 5 5.99997Z"/>
</symbol><symbol viewBox="0 0 137 46" id="long-arrow-left" xmlns="http://www.w3.org/2000/svg">
    <path d="M0.997898 43.4371C2.10383 42.3862 3.19883 41.3465 4.30477 40.2956C4.37713 39.95 4.55001 39.6361 4.87983 39.4086C5.47352 38.9992 6.01148 38.5796 6.56072 38.1709L13.9192 31.1873C15.2223 29.9555 17.0734 31.7712 15.9166 33.123C14.8145 34.4183 13.6444 35.6258 12.4509 36.767C52.8159 22.708 93.7044 10.1412 135.407 0.617642C136.05 0.474191 136.32 1.43679 135.679 1.60247C92.2144 12.9207 49.1394 25.6664 7.09101 41.5077C6.7079 41.8804 6.30257 42.2535 5.91946 42.6263C9.57013 42.2689 13.2208 41.9115 16.8827 41.565C18.6806 41.4034 18.6907 44.1705 16.9264 44.3426C11.9668 44.854 7.00644 45.3209 2.0352 45.799C0.825712 45.9181 0.154421 44.2171 0.99754 43.4149L0.997898 43.4371Z"/>
</symbol><symbol viewBox="0 0 137 46" id="long-arrow-right" xmlns="http://www.w3.org/2000/svg">
    <path d="M135.947 43.4371C134.841 42.3862 133.746 41.3465 132.64 40.2956C132.568 39.95 132.395 39.6361 132.065 39.4086C131.471 38.9992 130.933 38.5796 130.384 38.1709L123.026 31.1873C121.723 29.9555 119.871 31.7712 121.028 33.123C122.13 34.4183 123.3 35.6258 124.494 36.767C84.1289 22.708 43.2405 10.1412 1.53736 0.617642C0.895045 0.474191 0.624319 1.43679 1.26629 1.60247C44.7304 12.9207 87.8054 25.6664 129.854 41.5077C130.237 41.8804 130.642 42.2535 131.025 42.6263C127.375 42.2689 123.724 41.9115 120.062 41.565C118.264 41.4034 118.254 44.1705 120.018 44.3426C124.978 44.854 129.938 45.3209 134.91 45.799C136.119 45.9181 136.79 44.2171 135.947 43.4149L135.947 43.4371Z"/>
</symbol></svg>