<?xml version="1.0" encoding="utf-8"?><svg viewBox="0 0 137 46" xmlns="http://www.w3.org/2000/svg" xmlns:xlink="http://www.w3.org/1999/xlink"><style>:root>svg{display:none}:root>svg:target{display:block}</style><svg fill="none" viewBox="0 0 17 6" id="arrow" xmlns="http://www.w3.org/2000/svg">
    <path d="M1.436 2.479a.478.478 0 0 0 0 .957v-.957Zm15.305.478L11.958.196v5.523l4.783-2.762Zm-15.305.479h11v-.957h-11v.957Z" fill="#fff"/>
</svg><svg fill="none" viewBox="0 0 5 12" id="chevron" xmlns="http://www.w3.org/2000/svg">
    <path d="M5 6c0 .14-.04.28-.122.386L2.795 9.113.71 11.84c-.163.213-.426.213-.589 0a.67.67 0 0 1 0-.771L3.994 6 .122.931a.67.67 0 0 1 0-.771c.163-.213.427-.213.59 0l4.166 5.454A.64.64 0 0 1 5 6Z" fill="#fff"/>
</svg><svg fill="none" viewBox="0 0 137 46" id="long-arrow-left" xmlns="http://www.w3.org/2000/svg">
    <path d="m.998 43.437 3.307-3.141a1.38 1.38 0 0 1 .575-.887c.594-.41 1.131-.83 1.68-1.238l7.36-6.984c1.302-1.232 3.153.584 1.997 1.936a48.92 48.92 0 0 1-3.466 3.644C52.816 22.708 93.704 10.141 135.407.617c.643-.143.913.82.272.985C92.214 12.921 49.139 25.666 7.091 41.508c-.383.372-.788.745-1.172 1.118 3.651-.357 7.302-.715 10.964-1.061 1.798-.162 1.808 2.605.043 2.778-4.96.511-9.92.978-14.89 1.456-1.21.12-1.882-1.582-1.038-2.384v.022Z" fill="#fff"/>
</svg><svg fill="none" viewBox="0 0 137 46" id="long-arrow-right" xmlns="http://www.w3.org/2000/svg">
    <path d="m135.947 43.437-3.307-3.141a1.378 1.378 0 0 0-.575-.887c-.594-.41-1.132-.83-1.681-1.238l-7.358-6.984c-1.303-1.232-3.155.584-1.998 1.936a48.8 48.8 0 0 0 3.466 3.644C84.129 22.708 43.24 10.141 1.537.617c-.642-.143-.913.82-.27.985C44.73 12.921 87.804 25.666 129.853 41.508c.383.372.788.745 1.171 1.118-3.65-.357-7.301-.715-10.963-1.061-1.798-.162-1.808 2.605-.044 2.778 4.96.511 9.92.978 14.892 1.456 1.209.12 1.88-1.582 1.037-2.384v.022Z" fill="#fff"/>
</svg></svg>